<?xml version="1.0" encoding="UTF-8"?>
<!DOCTYPE svg PUBLIC "-//W3C//DTD SVG 1.1//EN" "http://www.w3.org/Graphics/SVG/1.1/DTD/svg11.dtd">
<!-- Creator: CorelDRAW 2021 (64-Bit) -->
<svg xmlns="http://www.w3.org/2000/svg" xml:space="preserve" width="200px" height="130px" version="1.1"
     style="shape-rendering:geometricPrecision; text-rendering:geometricPrecision; image-rendering:optimizeQuality; fill-rule:evenodd; clip-rule:evenodd"
     viewBox="7000 13800 7000 2000"
>
 <defs>
  <style type="text/css">
   <![CDATA[
    .fil2 {fill:black}
    .fil0 {fill:#FFBA21}
    .fil1 {fill:black;fill-rule:nonzero}
   ]]>
  </style>
 </defs>
    <g id="Слой_x0020_1">
  <metadata id="CorelCorpID_0Corel-Layer"/>
        <g id="_1670646631440">
   <polygon class="fil0" points="10492.91,13029.69 12013.8,14896.68 8972.02,14896.68 "/>
            <path class="fil1"
                  d="M7192.91 16359.91l1.15 -315.79 57.41 0c43.64,-47.46 77.9,-113.3 102.78,-197.51 24.88,-84.21 42.29,-187.95 52.25,-311.2l3.44 -48.23 -151.58 -29.86 0 -60.86 716.56 0 0 55.12c-13.78,6.89 -29.28,12.83 -46.51,17.8 -17.22,4.98 -36.94,10.14 -59.14,15.5l0 559.24 114.84 0 0 315.79 -66.61 0 -56.27 -212.44 -546.6 0 -55.12 212.44 -66.6 0zm327.27 -860.1c-8.42,139.33 -22.58,252.44 -42.49,339.33 -19.9,86.89 -50.52,155.22 -91.86,204.98l308.9 0 12.63 -544.31 -187.18 0zm1166.45 383.54l65.45 0 0 264.12 -686.7 0 0 -56.27c34.45,-13.78 69.67,-24.5 105.65,-32.15l12.63 -571.87 -118.28 -29.86 0 -60.86 675.22 0 0 242.3 -65.46 0 -47.08 -138.95 -281.34 0 0 214.74 153.88 0 36.74 -89.57 59.72 0 0 282.49 -59.72 0 -37.89 -90.72 -152.73 0 0 227.37 289.38 0 50.53 -160.77zm917.25 -486.89l0 299.72 -65.45 0 -51.68 -196.37 -160.76 0 0 559.24 144.69 26.41 0 62.01 -465.08 0 0 -56.27c23.74,-6.89 47.66,-13.59 71.78,-20.09 24.11,-6.51 48.42,-11.68 72.91,-15.51l12.64 -555.79 -163.07 0 -51.67 196.37 -65.46 0 0 -299.72 721.15 0zm691.04 486.89l65.45 0 0 264.12 -686.7 0 0 -56.27c34.45,-13.78 69.67,-24.5 105.65,-32.15l12.63 -571.87 -118.28 -29.86 0 -60.86 675.22 0 0 242.3 -65.46 0 -47.08 -138.95 -281.34 0 0 214.74 153.88 0 36.74 -89.57 59.72 0 0 282.49 -59.72 0 -37.89 -90.72 -152.73 0 0 227.37 289.38 0 50.53 -160.77zm191.51 264.12l0 -56.27c32.92,-13.78 68.13,-24.5 105.65,-32.15l12.63 -571.87 -118.28 -29.86 0 -60.86 384.69 0 0 55.12c-31.39,13.78 -65.84,24.88 -103.35,33.3l0 234.26 99.91 0 101.05 -169.95c22.2,-35.98 44.78,-66.03 67.75,-90.14 22.97,-24.12 49.38,-42.11 79.23,-53.98 29.86,-11.86 66.99,-17.79 111.39,-17.79 13.78,0 28.33,0.76 43.64,2.29l0 187.18 -157.32 -25.26c-5.36,7.65 -10.72,15.69 -16.08,24.11 -5.36,8.42 -11.1,16.84 -17.22,25.26l-72.35 114.84 213.59 341.05 95.31 27.56 0 63.16 -245.74 0 -202.11 -327.27 -101.05 0 0 241.15 104.5 24.11 0 62.01 -385.84 0zm1576.39 -751.01l0 299.72 -65.45 0 -51.68 -196.37 -160.76 0 0 559.24 144.69 26.41 0 62.01 -465.08 0 0 -56.27c23.74,-6.89 47.66,-13.59 71.78,-20.09 24.11,-6.51 48.42,-11.68 72.91,-15.51l12.64 -555.79 -163.07 0 -51.67 196.37 -65.46 0 0 -299.72 721.15 0zm69.79 751.01l0 -56.27c34.45,-13.78 69.67,-24.5 105.65,-32.15l12.63 -571.87 -118.28 -29.86 0 -60.86 381.25 0 0 55.12c-14.55,6.89 -30.82,13.21 -48.81,18.95 -17.99,5.74 -35.79,10.53 -53.4,14.35l1.15 396.18 311.2 -361.73 1.15 -32.15 -111.39 -29.86 0 -60.86 378.95 0 0 55.12c-32.92,13.78 -68.14,24.88 -105.65,33.3l0 576.47 105.65 24.11 0 62.01 -377.8 0 0 -56.27c32.92,-13.78 65.45,-24.5 97.61,-32.15l8.03 -386.99 -307.75 355.98 0 33.31 97.61 24.11 0 62.01 -377.8 0zm1469.6 -388.14c62.01,12.25 109.28,34.07 141.82,65.46 32.53,31.39 48.8,70.43 48.8,117.13 0,64.31 -26.03,114.64 -78.09,151 -52.05,36.37 -124.4,54.55 -217.03,54.55l-426.03 0 0 -56.27c22.97,-11.48 58.18,-22.2 105.65,-32.15l12.63 -571.87 -118.28 -29.86 0 -60.86 437.51 0c79.62,0 142.01,15.7 187.18,47.08 45.17,31.39 67.75,74.26 67.75,128.62 0,42.87 -14.54,80.95 -43.63,114.26 -29.09,33.3 -68.52,57.6 -118.28,72.91zm-134.36 -259.52l-114.83 0 0 219.33 148.14 0c58.94,-28.32 88.42,-66.98 88.42,-115.98 0,-32.92 -10.72,-58.37 -32.16,-76.36 -21.43,-17.99 -51.29,-26.99 -89.57,-26.99zm17.23 321.53l-132.06 0 0 223.93 180.29 0c56.65,-18.37 84.97,-55.12 84.97,-110.24 0,-35.98 -11.86,-63.92 -35.59,-83.83 -23.74,-19.9 -56.27,-29.86 -97.61,-29.86z"/>
            <path class="fil1"
                  d="M7510.73 16626.84l0 -11.8c7.22,-2.88 14.6,-5.13 22.14,-6.74l2.65 -119.87 -24.79 -6.26 0 -12.76 79.92 0 0 11.55c-3.05,1.45 -6.46,2.77 -10.23,3.98 -3.78,1.2 -7.51,2.2 -11.2,3l0.24 83.05 65.24 -75.82 0.24 -6.74 -23.35 -6.26 0 -12.76 79.44 0 0 11.55c-6.9,2.89 -14.29,5.22 -22.15,6.98l0 120.85 22.15 5.05 0 13 -79.2 0 0 -11.8c6.9,-2.88 13.72,-5.13 20.46,-6.74l1.69 -81.12 -64.52 74.63 0 6.98 20.46 5.05 0 13 -79.19 0zm192.58 0l0 -11.8c7.22,-2.88 14.6,-5.13 22.14,-6.74l2.65 -119.87 -24.79 -6.26 0 -12.76 79.68 0 0 11.55c-6.42,2.89 -13.32,5.22 -20.71,6.98l0 49.35 64.04 0 1.2 -48.86 -23.59 -6.26 0 -12.76 79.68 0 0 11.55c-3.37,1.45 -6.9,2.77 -10.6,3.98 -3.69,1.2 -7.54,2.2 -11.55,3l0 120.85 22.15 5.05 0 13 -79.68 0 0 -11.55c3.53,-1.45 7.02,-2.77 10.47,-3.98 3.45,-1.2 6.94,-2.2 10.47,-3.01l0.96 -49.34 -63.55 0 0 49.83 20.71 5.05 0 13 -79.68 0zm236.63 3.37l0 -10.11c8.34,-2.89 16.77,-4.98 25.27,-6.26l0.24 -10.11c-23.27,-0.96 -41.32,-6.3 -54.16,-16.01 -12.84,-9.71 -19.26,-23.07 -19.26,-40.08 0,-17.17 6.5,-30.61 19.5,-40.32 13,-9.71 31.7,-14.88 56.09,-15.52l0.24 -8.91 -27.92 -5.54 0 -11.31 79.92 0 0 10.11c-8.19,2.89 -16.53,4.97 -25.04,6.26l0 9.39c24.39,0.96 42.97,6.09 55.73,15.4 12.76,9.31 19.13,22.47 19.13,39.48 0,17.33 -6.5,30.93 -19.49,40.8 -13,9.87 -31.46,15.29 -55.37,16.25l0 10.83 25.04 4.1 0 11.55 -79.92 0zm-11.56 -82.33c0,22.63 12.44,35.47 37.31,38.52l1.69 -77.03c-11.4,0.96 -20.94,2.89 -28.65,5.78 -3.53,5.29 -6.14,10.55 -7.82,15.76 -1.69,5.22 -2.53,10.88 -2.53,16.97zm104.71 -0.48c0,-11.55 -3.08,-20.38 -9.26,-26.48 -6.18,-6.1 -15.85,-9.87 -29.01,-11.31l0 76.79c13.16,-1.61 22.83,-5.66 29.01,-12.16 6.18,-6.5 9.26,-15.44 9.26,-26.84zm123.98 82.09c-15.09,0 -28.13,-3.17 -39.12,-9.51 -10.99,-6.34 -19.46,-15.45 -25.39,-27.32 -5.94,-11.88 -8.91,-26.08 -8.91,-42.61 0,-16.69 3.29,-31.29 9.87,-43.81 6.58,-12.52 15.65,-22.23 27.2,-29.13 11.55,-6.9 24.79,-10.35 39.72,-10.35 15.24,0 28.48,3.21 39.72,9.63 11.23,6.42 19.86,15.49 25.87,27.2 6.02,11.72 9.03,25.52 9.03,41.41 0,17.33 -3.17,32.29 -9.51,44.89 -6.34,12.6 -15.36,22.35 -27.08,29.25 -11.71,6.9 -25.51,10.35 -41.4,10.35zm2.41 -22.15c12.03,0 21.46,-5.17 28.28,-15.52 6.82,-10.36 10.23,-25.08 10.23,-44.18 0,-18.45 -3.41,-32.61 -10.23,-42.48 -6.82,-9.87 -16.73,-14.81 -29.73,-14.81 -4.33,0 -8.79,0.64 -13.36,1.93 -4.57,1.28 -8.95,3.21 -13.12,5.77 -7.22,16.05 -10.83,33.14 -10.83,51.28 0,18.45 3.41,32.74 10.23,42.85 6.82,10.11 16.33,15.16 28.53,15.16zm180.05 -137.93c16.53,0 29.61,4.25 39.24,12.76 9.63,8.5 14.44,19.98 14.44,34.42 0,10.59 -2.57,19.86 -7.7,27.8 -5.14,7.95 -12.32,14.09 -21.55,18.42 -9.22,4.33 -19.94,6.5 -32.13,6.5l-24.8 0 0 39.48 30.58 5.05 0 13 -89.55 0 0 -11.8c5.61,-3.04 13,-5.29 22.14,-6.74l2.65 -119.87 -24.79 -6.26 0 -12.76 91.47 0zm-9.63 21.66l-22.87 0 0 57.05 35.87 0c9.15,-7.7 13.72,-17.49 13.72,-29.36 0,-18.46 -8.9,-27.69 -26.72,-27.69zm271.29 117.72l23.11 5.05 0 13 -81.12 0 0 -11.8c7.22,-3.04 14.6,-5.29 22.14,-6.74l1.21 -114.58 -48.87 133.12 -20.46 0 -46.22 -128.79 -1.44 110.74 26.23 5.05 0 13 -73.17 0 0 -11.8c7.22,-3.04 14.68,-5.29 22.38,-6.74l4.34 -119.87 -25.76 -6.26 0 -12.76 71.25 0 37.31 107.6 39.24 -107.6 71.25 0 0 11.55c-3.37,1.45 -7.02,2.77 -10.95,3.98 -3.93,1.2 -7.98,2.2 -12.16,3l1.69 120.85zm181.26 0.48c2.57,0.64 5.17,1.44 7.82,2.4 2.65,0.97 5.18,1.93 7.58,2.89l0 12.28 -76.06 0 0 -11.8 21.18 -6.01 -8.67 -27.45 -56.32 0 -8.67 25.76c4.33,0.96 8.47,2.09 12.4,3.37 3.93,1.29 7.98,2.57 12.15,3.85l0 12.28 -67.16 0 0 -11.8 16.13 -7.94 49.35 -137.69 40.2 0 50.07 139.86zm-98.22 -47.18l44.06 0 -21.67 -68.13 -22.39 68.13zm270.58 43.09l25.03 0 0 66.19 -13.96 0 -11.56 -44.53 -152.85 0 0 -11.8c7.22,-2.88 14.6,-5.13 22.14,-6.74l2.65 -119.87 -24.79 -6.26 0 -12.76 78.71 0 0 11.55c-6.1,2.89 -12.68,5.22 -19.74,6.98l0 117.24 58.02 0 2.4 -116.75 -21.9 -6.26 0 -12.76 78.23 0 0 11.55c-7.06,2.89 -14.52,5.22 -22.38,6.98l0 117.24zm37.07 21.66l0 -11.8c7.22,-2.88 14.6,-5.13 22.14,-6.74l2.65 -119.87 -24.79 -6.26 0 -12.76 79.92 0 0 11.55c-3.05,1.45 -6.46,2.77 -10.23,3.98 -3.78,1.2 -7.51,2.2 -11.2,3l0.24 83.05 65.24 -75.82 0.24 -6.74 -23.35 -6.26 0 -12.76 79.44 0 0 11.55c-6.9,2.89 -14.29,5.22 -22.15,6.98l0 120.85 22.15 5.05 0 13 -79.2 0 0 -11.8c6.9,-2.88 13.72,-5.13 20.46,-6.74l1.69 -81.12 -64.52 74.63 0 6.98 20.46 5.05 0 13 -79.19 0zm267.44 2.65c-15.09,0 -28.13,-3.17 -39.12,-9.51 -10.99,-6.34 -19.46,-15.45 -25.39,-27.32 -5.94,-11.88 -8.91,-26.08 -8.91,-42.61 0,-16.69 3.29,-31.29 9.87,-43.81 6.58,-12.52 15.65,-22.23 27.2,-29.13 11.55,-6.9 24.79,-10.35 39.72,-10.35 15.24,0 28.48,3.21 39.72,9.63 11.23,6.42 19.86,15.49 25.87,27.2 6.02,11.72 9.03,25.52 9.03,41.41 0,17.33 -3.17,32.29 -9.51,44.89 -6.34,12.6 -15.36,22.35 -27.08,29.25 -11.71,6.9 -25.51,10.35 -41.4,10.35zm2.41 -22.15c12.03,0 21.46,-5.17 28.28,-15.52 6.82,-10.36 10.23,-25.08 10.23,-44.18 0,-18.45 -3.41,-32.61 -10.23,-42.48 -6.82,-9.87 -16.73,-14.81 -29.73,-14.81 -4.33,0 -8.79,0.64 -13.36,1.93 -4.57,1.28 -8.95,3.21 -13.12,5.77 -7.22,16.05 -10.83,33.14 -10.83,51.28 0,18.45 3.41,32.74 10.23,42.85 6.82,10.11 16.33,15.16 28.53,15.16zm88.58 19.5l0 -11.8c7.22,-2.88 14.6,-5.13 22.14,-6.74l2.65 -119.87 -24.79 -6.26 0 -12.76 79.68 0 0 11.55c-6.42,2.89 -13.32,5.22 -20.71,6.98l0 49.35 64.04 0 1.2 -48.86 -23.59 -6.26 0 -12.76 79.68 0 0 11.55c-3.37,1.45 -6.9,2.77 -10.6,3.98 -3.69,1.2 -7.54,2.2 -11.55,3l0 120.85 22.15 5.05 0 13 -79.68 0 0 -11.55c3.53,-1.45 7.02,-2.77 10.47,-3.98 3.45,-1.2 6.94,-2.2 10.47,-3.01l0.96 -49.34 -63.55 0 0 49.83 20.71 5.05 0 13 -79.68 0zm192.58 0l0 -11.8c7.22,-2.88 14.6,-5.13 22.14,-6.74l2.65 -119.87 -24.79 -6.26 0 -12.76 79.68 0 0 11.55c-6.42,2.89 -13.32,5.22 -20.71,6.98l0 49.35 64.04 0 1.2 -48.86 -23.59 -6.26 0 -12.76 79.68 0 0 11.55c-3.37,1.45 -6.9,2.77 -10.6,3.98 -3.69,1.2 -7.54,2.2 -11.55,3l0 120.85 22.15 5.05 0 13 -79.68 0 0 -11.55c3.53,-1.45 7.02,-2.77 10.47,-3.98 3.45,-1.2 6.94,-2.2 10.47,-3.01l0.96 -49.34 -63.55 0 0 49.83 20.71 5.05 0 13 -79.68 0zm267.44 2.65c-15.09,0 -28.13,-3.17 -39.12,-9.51 -10.99,-6.34 -19.46,-15.45 -25.39,-27.32 -5.94,-11.88 -8.91,-26.08 -8.91,-42.61 0,-16.69 3.29,-31.29 9.87,-43.81 6.58,-12.52 15.65,-22.23 27.2,-29.13 11.55,-6.9 24.79,-10.35 39.72,-10.35 15.24,0 28.48,3.21 39.72,9.63 11.23,6.42 19.86,15.49 25.87,27.2 6.02,11.72 9.03,25.52 9.03,41.41 0,17.33 -3.17,32.29 -9.51,44.89 -6.34,12.6 -15.36,22.35 -27.08,29.25 -11.71,6.9 -25.51,10.35 -41.4,10.35zm2.41 -22.15c12.03,0 21.46,-5.17 28.28,-15.52 6.82,-10.36 10.23,-25.08 10.23,-44.18 0,-18.45 -3.41,-32.61 -10.23,-42.48 -6.82,-9.87 -16.73,-14.81 -29.73,-14.81 -4.33,0 -8.79,0.64 -13.36,1.93 -4.57,1.28 -8.95,3.21 -13.12,5.77 -7.22,16.05 -10.83,33.14 -10.83,51.28 0,18.45 3.41,32.74 10.23,42.85 6.82,10.11 16.33,15.16 28.53,15.16zm91.23 -53.92l56.57 -6.98 2.4 22.39 -56.32 6.98 -2.65 -22.39zm211.83 55.85c2.57,0.64 5.17,1.44 7.82,2.4 2.65,0.97 5.18,1.93 7.58,2.89l0 12.28 -76.06 0 0 -11.8 21.18 -6.01 -8.67 -27.45 -56.32 0 -8.67 25.76c4.33,0.96 8.47,2.09 12.4,3.37 3.93,1.29 7.98,2.57 12.15,3.85l0 12.28 -67.16 0 0 -11.8 16.13 -7.94 49.35 -137.69 40.2 0 50.07 139.86zm-98.22 -47.18l44.06 0 -21.67 -68.13 -22.39 68.13zm117.24 64.75l0 -11.8c7.22,-2.88 14.6,-5.13 22.14,-6.74l2.65 -119.87 -24.79 -6.26 0 -12.76 79.68 0 0 11.55c-6.42,2.89 -13.32,5.22 -20.71,6.98l0 49.35 64.04 0 1.2 -48.86 -23.59 -6.26 0 -12.76 79.68 0 0 11.55c-3.37,1.45 -6.9,2.77 -10.6,3.98 -3.69,1.2 -7.54,2.2 -11.55,3l0 120.85 22.15 5.05 0 13 -79.68 0 0 -11.55c3.53,-1.45 7.02,-2.77 10.47,-3.98 3.45,-1.2 6.94,-2.2 10.47,-3.01l0.96 -49.34 -63.55 0 0 49.83 20.71 5.05 0 13 -79.68 0zm340.14 -17.57c2.57,0.64 5.17,1.44 7.82,2.4 2.65,0.97 5.18,1.93 7.58,2.89l0 12.28 -76.06 0 0 -11.8 21.18 -6.01 -8.67 -27.45 -56.32 0 -8.67 25.76c4.33,0.96 8.47,2.09 12.4,3.37 3.93,1.29 7.98,2.57 12.15,3.85l0 12.28 -67.16 0 0 -11.8 16.13 -7.94 49.35 -137.69 40.2 0 50.07 139.86zm-98.22 -47.18l44.06 0 -21.67 -68.13 -22.39 68.13zm116.75 65.71l0 -38.75 30.09 4.81c3.85,-9.95 6.94,-23.23 9.27,-39.84 2.33,-16.61 4.29,-35.18 5.9,-55.72l0.96 -9.87 -31.05 -6.26 0 -12.76 149.48 0 0 11.55c-3.05,1.45 -6.33,2.69 -9.87,3.73 -3.53,1.05 -7.7,2.13 -12.51,3.25l0 120.85 22.38 5.05 0 13 -81.36 0 0 -11.31c6.9,-3.21 14.36,-5.62 22.39,-7.23l2.65 -117.23 -39.24 0c-1.77,26.32 -4.05,48.43 -6.86,66.32 -2.81,17.9 -6.66,32.1 -11.56,42.61 -4.89,10.51 -11.43,17.93 -19.62,22.27 -8.18,4.33 -18.53,6.17 -31.05,5.53zm176.69 -0.96l0 -11.8c7.22,-2.88 14.6,-5.13 22.14,-6.74l2.65 -119.87 -24.79 -6.26 0 -12.76 79.92 0 0 11.55c-3.05,1.45 -6.46,2.77 -10.23,3.98 -3.78,1.2 -7.51,2.2 -11.2,3l0.24 83.05 65.24 -75.82 0.24 -6.74 -23.35 -6.26 0 -12.76 79.44 0 0 11.55c-6.9,2.89 -14.29,5.22 -22.15,6.98l0 120.85 22.15 5.05 0 13 -79.2 0 0 -11.8c6.9,-2.88 13.72,-5.13 20.46,-6.74l1.69 -81.12 -64.52 74.63 0 6.98 20.46 5.05 0 13 -79.19 0zm342.78 -157.43l0 62.83 -13.72 0 -10.83 -41.17 -33.7 0 0 117.23 30.33 5.54 0 13 -97.49 0 0 -11.8c4.97,-1.44 9.99,-2.84 15.04,-4.21 5.06,-1.36 10.15,-2.45 15.29,-3.25l2.65 -116.51 -34.19 0 -10.83 41.17 -13.72 0 0 -62.83 151.17 0zm10.36 157.43l0 -11.8c7.22,-2.88 14.6,-5.13 22.14,-6.74l2.65 -119.87 -24.79 -6.26 0 -12.76 79.92 0 0 11.55c-3.05,1.45 -6.46,2.77 -10.23,3.98 -3.78,1.2 -7.51,2.2 -11.2,3l0.24 83.05 65.24 -75.82 0.24 -6.74 -23.35 -6.26 0 -12.76 79.44 0 0 11.55c-6.9,2.89 -14.29,5.22 -22.15,6.98l0 120.85 22.15 5.05 0 13 -79.2 0 0 -11.8c6.9,-2.88 13.72,-5.13 20.46,-6.74l1.69 -81.12 -64.52 74.63 0 6.98 20.46 5.05 0 13 -79.19 0zm256.85 0l0 -11.8c4.81,-1.44 9.58,-2.84 14.32,-4.21 4.73,-1.36 9.67,-2.45 14.8,-3.25l0.97 -46.94c-6.26,2.57 -12.56,4.66 -18.9,6.26 -6.34,1.61 -12.56,2.41 -18.66,2.41 -15.56,0 -27.76,-3.33 -36.59,-9.99 -8.82,-6.66 -13.24,-16.17 -13.24,-28.53l1.21 -42.36 -16.13 -5.78 0 -13.24 67.88 0 0 12.04c-2.4,1.28 -5.13,2.4 -8.18,3.37 -3.05,0.96 -6.26,2 -9.63,3.12l0 48.87c2.89,2.89 6.7,4.94 11.43,6.14 4.74,1.2 10.23,1.8 16.49,1.8 7.55,0 15.81,-1.44 24.8,-4.33l1.2 -51.99 -19.26 -5.78 0 -13.24 75.11 0 0 11.55c-3.37,1.45 -6.86,2.77 -10.47,3.98 -3.61,1.2 -7.43,2.2 -11.44,3l0 120.85 21.91 5.05 0 13 -87.62 0zm230.13 -55.37l13.72 0 0 55.37 -143.95 0 0 -11.8c7.22,-2.88 14.6,-5.13 22.14,-6.74l2.65 -119.87 -24.79 -6.26 0 -12.76 141.54 0 0 50.79 -13.72 0 -9.87 -29.13 -58.98 0 0 45.02 32.26 0 7.7 -18.78 12.52 0 0 59.22 -12.52 0 -7.94 -19.02 -32.02 0 0 47.67 60.67 0 10.59 -33.71zm112.17 57.78c-24.87,0 -44.09,-6.94 -57.65,-20.83 -13.56,-13.88 -20.34,-33.58 -20.34,-59.09 0,-17.33 3.29,-32.18 9.87,-44.54 6.58,-12.35 16.05,-21.82 28.4,-28.4 12.36,-6.58 27.2,-9.87 44.54,-9.87 6.74,0 14,0.52 21.78,1.57 7.78,1.04 15.85,2.6 24.19,4.69l0 50.79 -14.68 0 -11.07 -29.13c-9.63,-1.92 -19.1,-2.88 -28.41,-2.88 -8.5,0 -16.93,1.04 -25.27,3.12 -4.18,8.35 -7.27,16.94 -9.27,25.76 -2.01,8.83 -3.01,18.38 -3.01,28.65 0,18.45 3.69,32.41 11.07,41.88 7.38,9.47 18.3,14.21 32.74,14.21 6.26,0 13.4,-1.05 21.42,-3.13l11.8 -31.3 14.68 0 0 51.03c-19.09,4.98 -36.02,7.47 -50.79,7.47zm73.18 -2.41l0 -11.8c6.9,-2.88 14.28,-5.13 22.14,-6.74l2.65 -119.87 -24.79 -6.26 0 -12.76 80.64 0 0 11.55c-6.58,2.89 -13.8,5.22 -21.67,6.98l0 49.11 20.95 0 21.18 -35.63c4.65,-7.54 9.39,-13.84 14.2,-18.89 4.82,-5.06 10.35,-8.83 16.61,-11.32 6.26,-2.48 14.04,-3.73 23.35,-3.73 2.89,0 5.94,0.16 9.15,0.48l0 39.24 -32.98 -5.29c-1.12,1.6 -2.25,3.29 -3.37,5.05 -1.12,1.77 -2.33,3.53 -3.61,5.3l-15.17 24.07 44.78 71.49 19.98 5.78 0 13.24 -51.52 0 -42.36 -68.61 -21.19 0 0 50.56 21.91 5.05 0 13 -80.88 0zm324.49 -17.57c2.57,0.64 5.17,1.44 7.82,2.4 2.65,0.97 5.18,1.93 7.58,2.89l0 12.28 -76.06 0 0 -11.8 21.18 -6.01 -8.67 -27.45 -56.32 0 -8.67 25.76c4.33,0.96 8.47,2.09 12.4,3.37 3.93,1.29 7.98,2.57 12.15,3.85l0 12.28 -67.16 0 0 -11.8 16.13 -7.94 49.35 -137.69 40.2 0 50.07 139.86zm-98.22 -47.18l44.06 0 -21.67 -68.13 -22.39 68.13zm110.5 64.75l0 -13.24 19.02 -4.57 31.53 -52.48c-9.63,-3.37 -17.33,-8.75 -23.11,-16.13 -5.78,-7.38 -8.66,-15.81 -8.66,-25.27 0,-13.64 4.81,-24.68 14.44,-33.1 9.63,-8.43 22.87,-12.64 39.72,-12.64l90.03 0 0 11.55c-3.53,1.45 -7.18,2.81 -10.96,4.1 -3.77,1.28 -7.5,2.24 -11.19,2.88l0 120.85 22.15 5.05 0 13 -79.68 0 0 -11.8c3.69,-1.44 7.26,-2.72 10.71,-3.85 3.45,-1.12 6.86,-2.08 10.23,-2.89l1.21 -44.05 -22.39 0 -32.98 62.59 -50.07 0zm85.7 -84.01l20.22 0 1.2 -52 -41.4 0c-3.21,3.37 -5.74,7.1 -7.59,11.2 -1.84,4.09 -2.76,8.54 -2.76,13.36 0,8.34 2.88,15 8.66,19.98 5.78,4.97 13,7.46 21.67,7.46zm218.33 86.42c-24.87,0 -44.09,-6.94 -57.65,-20.83 -13.56,-13.88 -20.34,-33.58 -20.34,-59.09 0,-17.33 3.29,-32.18 9.87,-44.54 6.58,-12.35 16.05,-21.82 28.4,-28.4 12.36,-6.58 27.2,-9.87 44.54,-9.87 6.74,0 14,0.52 21.78,1.57 7.78,1.04 15.85,2.6 24.19,4.69l0 50.79 -14.68 0 -11.07 -29.13c-9.63,-1.92 -19.1,-2.88 -28.41,-2.88 -8.5,0 -16.93,1.04 -25.27,3.12 -4.18,8.35 -7.27,16.94 -9.27,25.76 -2.01,8.83 -3.01,18.38 -3.01,28.65 0,18.45 3.69,32.41 11.07,41.88 7.38,9.47 18.3,14.21 32.74,14.21 6.26,0 13.4,-1.05 21.42,-3.13l11.8 -31.3 14.68 0 0 51.03c-19.09,4.98 -36.02,7.47 -50.79,7.47zm73.18 -2.41l0 -11.8c7.22,-2.88 14.6,-5.13 22.14,-6.74l2.65 -119.87 -24.79 -6.26 0 -12.76 79.92 0 0 11.55c-3.05,1.45 -6.46,2.77 -10.23,3.98 -3.78,1.2 -7.51,2.2 -11.2,3l0.24 83.05 65.24 -75.82 0.24 -6.74 -23.35 -6.26 0 -12.76 79.44 0 0 11.55c-6.9,2.89 -14.29,5.22 -22.15,6.98l0 120.85 22.15 5.05 0 13 -79.2 0 0 -11.8c6.9,-2.88 13.72,-5.13 20.46,-6.74l1.69 -81.12 -64.52 74.63 0 6.98 20.46 5.05 0 13 -79.19 0zm272.01 2.41c-24.87,0 -44.09,-6.94 -57.65,-20.83 -13.56,-13.88 -20.34,-33.58 -20.34,-59.09 0,-17.33 3.29,-32.18 9.87,-44.54 6.58,-12.35 16.05,-21.82 28.4,-28.4 12.36,-6.58 27.2,-9.87 44.54,-9.87 6.74,0 14,0.52 21.78,1.57 7.78,1.04 15.85,2.6 24.19,4.69l0 50.79 -14.68 0 -11.07 -29.13c-9.63,-1.92 -19.1,-2.88 -28.41,-2.88 -8.5,0 -16.93,1.04 -25.27,3.12 -4.18,8.35 -7.27,16.94 -9.27,25.76 -2.01,8.83 -3.01,18.38 -3.01,28.65 0,18.45 3.69,32.41 11.07,41.88 7.38,9.47 18.3,14.21 32.74,14.21 6.26,0 13.4,-1.05 21.42,-3.13l11.8 -31.3 14.68 0 0 51.03c-19.09,4.98 -36.02,7.47 -50.79,7.47zm222.43 -159.84l0 62.83 -13.72 0 -10.83 -41.17 -33.7 0 0 117.23 30.33 5.54 0 13 -97.49 0 0 -11.8c4.97,-1.44 9.99,-2.84 15.04,-4.21 5.06,-1.36 10.15,-2.45 15.29,-3.25l2.65 -116.51 -34.19 0 -10.83 41.17 -13.72 0 0 -62.83 151.17 0zm140.59 102.06l13.72 0 0 55.37 -143.95 0 0 -11.8c7.22,-2.88 14.6,-5.13 22.14,-6.74l2.65 -119.87 -24.79 -6.26 0 -12.76 141.54 0 0 50.79 -13.72 0 -9.87 -29.13 -58.98 0 0 45.02 32.26 0 7.7 -18.78 12.52 0 0 59.22 -12.52 0 -7.94 -19.02 -32.02 0 0 47.67 60.67 0 10.59 -33.71zm233.74 37.32l23.11 5.05 0 13 -81.12 0 0 -11.8c7.22,-3.04 14.6,-5.29 22.14,-6.74l1.21 -114.58 -48.87 133.12 -20.46 0 -46.22 -128.79 -1.44 110.74 26.23 5.05 0 13 -73.17 0 0 -11.8c7.22,-3.04 14.68,-5.29 22.38,-6.74l4.34 -119.87 -25.76 -6.26 0 -12.76 71.25 0 37.31 107.6 39.24 -107.6 71.25 0 0 11.55c-3.37,1.45 -7.02,2.77 -10.95,3.98 -3.93,1.2 -7.98,2.2 -12.16,3l1.69 120.85zm181.26 0.48c2.57,0.64 5.17,1.44 7.82,2.4 2.65,0.97 5.18,1.93 7.58,2.89l0 12.28 -76.06 0 0 -11.8 21.18 -6.01 -8.67 -27.45 -56.32 0 -8.67 25.76c4.33,0.96 8.47,2.09 12.4,3.37 3.93,1.29 7.98,2.57 12.15,3.85l0 12.28 -67.16 0 0 -11.8 16.13 -7.94 49.35 -137.69 40.2 0 50.07 139.86zm-98.22 -47.18l44.06 0 -21.67 -68.13 -22.39 68.13z"/>
            <path class="fil2"
                  d="M10492.91 13738.68c247.99,0 449.01,201.02 449.01,449.01 0,247.99 -201.02,449.02 -449.01,449.02 -248,0 -449.02,-201.03 -449.02,-449.02 0,-46.01 6.93,-90.4 19.79,-132.2 35.2,77.95 113.63,132.2 204.72,132.2 123.99,0 224.51,-100.51 224.51,-224.5 0,-91.1 -54.24,-169.51 -132.19,-204.72 41.79,-12.85 86.17,-19.79 132.19,-19.79zm-2.18 578.88c27.42,0 49.65,22.24 49.65,49.65 0,27.42 -22.23,49.65 -49.65,49.65 -27.42,0 -49.65,-22.23 -49.65,-49.65 0,-27.41 22.23,-49.65 49.65,-49.65zm204.02 -68.31c52.02,0 94.18,42.16 94.18,94.17 0,52.01 -42.16,94.17 -94.18,94.17 -52.01,0 -94.17,-42.16 -94.17,-94.17 0,-52.01 42.16,-94.17 94.17,-94.17z"/>
            <path class="fil1"
                  d="M11093.5 14596.11l0.01 0.02 370.58 370.59c49.88,49.89 49.88,130.77 0,180.65 -49.89,49.89 -130.77,49.89 -180.65,0l-368.54 -368.55c-363.41,259.89 -871.41,108.92 -1204.08,-125.92 -169.43,-119.61 -328.82,-280.39 -471.3,-482.21l-32.38 -45.85 32.38 -45.84c142.47,-201.79 301.84,-362.55 471.26,-482.16 246.52,-174.04 514.01,-261.08 782.12,-261.08 268.11,0 535.61,87.04 782.13,261.08 169.42,119.61 328.79,280.37 471.25,482.16l32.37 45.84 -32.37 45.85c-131.35,186.06 -277.08,337.23 -431.8,453.43l-113.96 -113.95c135.5,-98.59 264.28,-227.02 382.15,-385.33 -122.85,-164.98 -257.53,-297.52 -399.34,-397.63 -107.43,-75.85 -219.04,-133.07 -332.69,-171.68 57.22,32.46 109.61,72.44 155.8,118.63 131.43,131.42 212.73,312.99 212.73,513.53 0,151.43 -46.39,292.05 -125.67,408.42zm-1217.53 -25.03c-69.3,-111.28 -109.33,-242.67 -109.33,-383.39 0,-200.54 81.3,-382.11 212.72,-513.53 46.19,-46.19 98.59,-86.17 155.8,-118.63 -113.65,38.61 -225.25,95.83 -332.69,171.68 -141.79,100.11 -276.49,232.65 -399.34,397.63 122.86,165.01 257.57,297.58 399.38,397.69 24.11,17.02 48.61,33.21 73.46,48.55zm1017.55 -784.01c-102.51,-102.52 -244.16,-165.94 -400.62,-165.94 -156.45,0 -298.1,63.42 -400.62,165.94 -102.52,102.51 -165.94,244.16 -165.94,400.62 0,156.46 63.42,298.11 165.94,400.63 109.92,109.92 252.09,165.9 406.48,165.9 154.13,-1.57 293.54,-64.67 394.76,-165.9 102.52,-102.52 165.94,-244.17 165.94,-400.63 0,-156.46 -63.42,-298.11 -165.94,-400.62z"/>
  </g>
 </g>
</svg>
